<svg width="220" height="220" viewBox="0 0 220 220" xmlns="http://www.w3.org/2000/svg">
  <defs>
    <radialGradient id="pcbBack" cx="50%" cy="45%" r="60%">
      <stop offset="0%" stop-color="#2F8653"/>
      <stop offset="100%" stop-color="#256B42"/>
    </radialGradient>
  </defs>
  <rect width="220" height="220" fill="white"/>
  <circle cx="110" cy="110" r="96" fill="url(#pcbBack)" stroke="#1B4A2E" stroke-width="6"/>
  <circle cx="110" cy="110" r="84" fill="none" stroke="#4FAE6D" stroke-width="2"/>

  <rect x="76" y="70" width="68" height="46" rx="6" fill="#222222"/>
  <rect x="86" y="78" width="48" height="12" rx="2" fill="#3A3A3A"/>
  <rect x="86" y="96" width="28" height="10" rx="2" fill="#3A3A3A"/>
  <rect x="118" y="96" width="16" height="10" rx="2" fill="#3A3A3A"/>

  <rect x="66" y="128" width="32" height="16" rx="3" fill="#B28B61" stroke="#8E6B49" stroke-width="1.5"/>
  <rect x="122" y="128" width="32" height="16" rx="3" fill="#B28B61" stroke="#8E6B49" stroke-width="1.5"/>

  <circle cx="64" cy="86" r="5" fill="#CDE5D2"/>
  <circle cx="156" cy="86" r="5" fill="#CDE5D2"/>
  <circle cx="64" cy="156" r="5" fill="#CDE5D2"/>
  <circle cx="156" cy="156" r="5" fill="#CDE5D2"/>

  <line x1="64" y1="86" x2="86" y2="96" stroke="#7DC898" stroke-width="2"/>
  <line x1="156" y1="86" x2="134" y2="96" stroke="#7DC898" stroke-width="2"/>
  <line x1="64" y1="156" x2="86" y2="132" stroke="#7DC898" stroke-width="2"/>
  <line x1="156" y1="156" x2="134" y2="132" stroke="#7DC898" stroke-width="2"/>

  <rect x="96" y="168" width="28" height="14" rx="3" fill="#D6C3A4"/>
  <text x="110" y="202" text-anchor="middle" font-family="Arial, sans-serif" font-size="10" fill="#1B4A2E">PCB BACK</text>
</svg>
