<svg width="220" height="220" viewBox="0 0 220 220" xmlns="http://www.w3.org/2000/svg">
  <defs>
    <radialGradient id="pcbFront" cx="50%" cy="40%" r="60%">
      <stop offset="0%" stop-color="#3E9B5A"/>
      <stop offset="100%" stop-color="#2E7A48"/>
    </radialGradient>
  </defs>
  <rect width="220" height="220" fill="white"/>
  <circle cx="110" cy="110" r="96" fill="url(#pcbFront)" stroke="#1F5A34" stroke-width="6"/>
  <circle cx="110" cy="110" r="84" fill="none" stroke="#5BC07A" stroke-width="2"/>

  <rect x="76" y="88" width="68" height="44" rx="6" fill="#F2E9D7" stroke="#D9CDBA" stroke-width="2"/>
  <rect x="86" y="96" width="28" height="18" rx="3" fill="#C9B28A"/>
  <rect x="116" y="96" width="18" height="18" rx="3" fill="#A38B66"/>
  <rect x="90" y="118" width="40" height="10" rx="2" fill="#BFA57B"/>

  <rect x="88" y="54" width="44" height="18" rx="3" fill="#E8D8BD" stroke="#CBB89B" stroke-width="1.5"/>
  <rect x="70" y="136" width="28" height="12" rx="2" fill="#D9CDBA"/>
  <rect x="124" y="136" width="28" height="12" rx="2" fill="#D9CDBA"/>

  <rect x="100" y="160" width="40" height="16" rx="4" fill="#B08D63" stroke="#896A44" stroke-width="2"/>
  <rect x="104" y="164" width="32" height="8" rx="3" fill="#7A5C3B"/>

  <circle cx="58" cy="80" r="4" fill="#CDE5D2"/>
  <circle cx="158" cy="74" r="4" fill="#CDE5D2"/>
  <circle cx="58" cy="148" r="4" fill="#CDE5D2"/>
  <circle cx="160" cy="150" r="4" fill="#CDE5D2"/>

  <line x1="60" y1="80" x2="92" y2="88" stroke="#89CFA2" stroke-width="2"/>
  <line x1="158" y1="74" x2="136" y2="88" stroke="#89CFA2" stroke-width="2"/>
  <line x1="58" y1="148" x2="86" y2="132" stroke="#89CFA2" stroke-width="2"/>
  <line x1="160" y1="150" x2="136" y2="132" stroke="#89CFA2" stroke-width="2"/>

  <circle cx="110" cy="36" r="5" fill="#EFE8D8" stroke="#D9CDBA" stroke-width="2"/>
  <text x="110" y="202" text-anchor="middle" font-family="Arial, sans-serif" font-size="10" fill="#1F5A34">PCB FRONT</text>
</svg>
