<svg width="460" height="320" viewBox="0 0 460 320" xmlns="http://www.w3.org/2000/svg">
  <rect width="460" height="320" fill="#ffffff"/>
  <rect x="12" y="12" width="436" height="296" rx="12" fill="#ffffff" stroke="#A8A8B8" stroke-width="2"/>

  <text x="28" y="40" font-family="Arial, sans-serif" font-size="14" fill="#1B1B1B">Puck Sensor Circuit Diagram</text>

  <rect x="40" y="70" width="120" height="60" rx="6" fill="#F7F4EE" stroke="#444" stroke-width="1.5"/>
  <text x="100" y="104" text-anchor="middle" font-family="Arial, sans-serif" font-size="12" fill="#222">USB-C</text>

  <rect x="180" y="60" width="140" height="80" rx="6" fill="#FDF8E7" stroke="#444" stroke-width="1.5"/>
  <text x="250" y="100" text-anchor="middle" font-family="Arial, sans-serif" font-size="12" fill="#222">MCU</text>

  <rect x="340" y="80" width="90" height="50" rx="6" fill="#F7F4EE" stroke="#444" stroke-width="1.5"/>
  <text x="385" y="108" text-anchor="middle" font-family="Arial, sans-serif" font-size="12" fill="#222">Sensor</text>

  <rect x="180" y="170" width="140" height="70" rx="6" fill="#F7F4EE" stroke="#444" stroke-width="1.5"/>
  <text x="250" y="208" text-anchor="middle" font-family="Arial, sans-serif" font-size="12" fill="#222">Power + PMIC</text>

  <rect x="40" y="180" width="120" height="60" rx="6" fill="#F7F4EE" stroke="#444" stroke-width="1.5"/>
  <text x="100" y="214" text-anchor="middle" font-family="Arial, sans-serif" font-size="12" fill="#222">Battery</text>

  <line x1="160" y1="100" x2="180" y2="100" stroke="#444" stroke-width="2"/>
  <line x1="320" y1="100" x2="340" y2="105" stroke="#444" stroke-width="2"/>
  <line x1="100" y1="130" x2="100" y2="180" stroke="#444" stroke-width="2"/>
  <line x1="100" y1="180" x2="180" y2="205" stroke="#444" stroke-width="2"/>
  <line x1="250" y1="140" x2="250" y2="170" stroke="#444" stroke-width="2"/>

  <circle cx="250" cy="140" r="3" fill="#444"/>
  <circle cx="100" cy="180" r="3" fill="#444"/>
  <circle cx="180" cy="205" r="3" fill="#444"/>

  <text x="306" y="156" font-family="Arial, sans-serif" font-size="10" fill="#666">I2C</text>
  <text x="118" y="166" font-family="Arial, sans-serif" font-size="10" fill="#666">VBAT</text>
  <text x="270" y="160" font-family="Arial, sans-serif" font-size="10" fill="#666">PWR</text>

  <rect x="300" y="250" width="120" height="40" rx="6" fill="#F2F2FA" stroke="#888" stroke-width="1"/>
  <text x="360" y="274" text-anchor="middle" font-family="Arial, sans-serif" font-size="11" fill="#333">Status LED</text>
  <line x1="320" y1="250" x2="320" y2="230" stroke="#444" stroke-width="2"/>
  <line x1="320" y1="230" x2="250" y2="230" stroke="#444" stroke-width="2"/>
</svg>
