<svg xmlns="http://www.w3.org/2000/svg" viewBox="0 0 200 200" width="200" height="200">
  <rect x="65" y="10" width="70" height="150" rx="10" fill="none" stroke="#333" stroke-width="2"/>
  <rect x="70" y="14" width="60" height="20" rx="4" fill="none" stroke="#555" stroke-width="1" stroke-dasharray="3,2"/>
  <circle cx="100" cy="24" r="5" fill="none" stroke="#555" stroke-width="1"/>
  <circle cx="88" cy="50" r="3" fill="#4CAF50" opacity="0.6"/>
  <circle cx="100" cy="50" r="3" fill="#FF9800" opacity="0.6"/>
  <circle cx="112" cy="50" r="3" fill="#2196F3" opacity="0.6"/>
  <line x1="72" y1="62" x2="128" y2="62" stroke="#555" stroke-width="0.8" stroke-dasharray="3,2"/>
  <rect x="78" y="68" width="44" height="22" rx="3" fill="none" stroke="#555" stroke-width="1.2"/>
  <text x="100" y="83" text-anchor="middle" font-family="monospace" font-size="7" fill="#555">OLED</text>
  <line x1="72" y1="96" x2="128" y2="96" stroke="#555" stroke-width="0.8" stroke-dasharray="3,2"/>
  <rect x="75" y="100" width="50" height="16" rx="2" fill="none" stroke="#43A047" stroke-width="1"/>
  <rect x="75" y="122" width="50" height="16" rx="2" fill="none" stroke="#43A047" stroke-width="1"/>
  <ellipse cx="100" cy="160" rx="40" ry="8" fill="none" stroke="#333" stroke-width="1.5"/>
  <rect x="88" y="148" width="24" height="6" rx="2" fill="none" stroke="#555" stroke-width="1.5"/>
  <text x="100" y="185" text-anchor="middle" font-family="sans-serif" font-size="8" fill="#888">Sensor Hub</text>
</svg>
